<svg width="129" height="108" viewBox="0 0 129 108" fill="none" xmlns="http://www.w3.org/2000/svg">
<path d="M40.4693 100.194C46.115 99.8262 50.3462 97.3185 52.5188 92.0528C53.5489 89.5612 54.1523 86.8305 54.4792 84.1487C55.2312 77.9823 54.2431 71.9343 52.385 66.0736C51.0388 61.8449 49.4006 57.7149 47.5704 52.6327C66.9293 58.3341 82.9246 68.6271 98.7936 80.0087C97.1841 81.8147 95.9471 83.0556 94.907 84.4352C93.9519 85.6981 93.0125 87.0375 92.4021 88.4842C90.3083 93.4717 91.261 95.5474 96.2748 97.333C98.5471 98.1452 100.896 98.7522 103.132 99.6595C108.647 101.874 114.144 104.17 119.624 106.5C125.22 108.88 128.857 106.399 128.528 100.283C128.42 98.3627 128.05 96.4557 127.725 94.5533C126.003 84.4074 124.245 74.266 122.498 64.1317C122.31 63.0237 122.238 61.8761 121.883 60.815C120.775 57.3583 117.334 56.2576 114.729 58.6913C113.12 60.1846 111.939 62.1501 110.628 63.9589C108.587 66.7668 106.6 69.6208 104.44 72.66C102.369 71.2475 100.774 70.182 99.2033 69.105C88.2708 61.6498 77.2171 54.4066 64.9348 49.3917C58.7057 46.8482 52.2441 44.6887 45.698 43.1966C42.2317 42.4024 40.1714 40.8125 38.0325 38.2082C28.1263 26.1626 18.0058 14.2971 7.8983 2.41277C6.16969 0.379311 4.0443 0.0417087 2.36379 1.14044C0.511654 2.34478 0.12261 4.6426 1.46327 7.14668C2.06926 8.27898 2.81419 9.34383 3.6215 10.3358C6.86343 14.3417 10.1217 18.3284 13.4169 22.2686C18.7572 28.6696 24.118 35.0432 30.0178 42.0796C26.2415 43.1187 23.4269 43.7334 20.7198 44.6476C8.3567 48.8637 1.62063 61.1124 4.49419 73.249C7.42809 85.6627 28.8827 100.943 40.4693 100.194ZM114.612 73.9134C116.033 81.7031 117.296 88.6628 118.653 96.0849C112.648 94.0164 107.237 92.1401 101.284 90.0854C105.716 84.7064 109.886 79.6538 114.612 73.9134ZM22.7022 53.6427C25.0874 52.7534 27.5935 52.1091 30.1008 51.6883C35.6416 50.741 35.657 50.8354 39.1319 57.0552C41.7764 62.2363 44.5577 69.0801 45.2976 76.524C45.5995 79.5248 45.5872 82.6503 45.0949 85.6025C44.244 90.7221 42.0153 91.9799 36.8789 90.7026C35.1806 90.2736 33.5002 89.6376 31.93 88.8763C26.0843 86.0326 20.9932 82.1602 16.7466 77.2489C9.72757 69.1248 12.6883 57.3627 22.7022 53.6427Z" fill="#191919"/>
</svg>
