<svg width="141" height="95" viewBox="0 0 141 95" fill="none" xmlns="http://www.w3.org/2000/svg">
<path d="M52.7694 93.9683C58.3111 92.8293 62.1579 89.7643 63.587 84.2502C64.2653 81.6408 64.488 78.8531 64.4436 76.1518C64.3419 69.9405 62.5328 64.0855 59.8876 58.5354C57.9736 54.5316 55.7838 50.6656 53.2732 45.8829C73.2315 48.8723 90.4886 56.8717 107.77 65.9668C106.424 67.9766 105.369 69.3757 104.528 70.885C103.755 72.267 103.009 73.7227 102.603 75.2396C101.213 80.4673 102.442 82.3925 107.654 83.4728C110.016 83.9653 112.426 84.2441 114.765 84.8359C120.532 86.2726 126.292 87.7918 132.04 89.3467C137.91 90.9362 141.172 87.9791 140.007 81.9671C139.636 80.0794 139.008 78.2411 138.424 76.4015C135.326 66.588 132.192 56.7841 129.07 46.9856C128.732 45.9139 128.502 44.7871 128.006 43.7847C126.433 40.5129 122.873 39.8951 120.628 42.6633C119.239 44.3634 118.339 46.4725 117.288 48.4442C115.653 51.5057 114.076 54.6055 112.354 57.9124C110.109 56.7976 108.382 55.9613 106.679 55.1101C94.8262 49.2265 82.8827 43.5695 70.0281 40.2885C63.5089 38.6242 56.8119 37.3724 50.1229 36.7932C46.5804 36.4824 44.3213 35.1905 41.8451 32.9045C30.379 22.333 18.7251 11.9694 7.08171 1.58539C5.09027 -0.191477 2.93866 -0.234072 1.42492 1.08498C-0.244326 2.53221 -0.3142 4.86169 1.35757 7.15799C2.11328 8.19636 2.99735 9.14885 3.93322 10.0206C7.69444 13.5434 11.4692 17.045 15.2742 20.4955C21.4427 26.1027 27.6279 31.6798 34.4379 37.8396C30.84 39.3873 28.1365 40.3827 25.5805 41.6599C13.9133 47.5334 8.9228 60.591 13.4355 72.2181C18.0459 84.1115 41.3954 96.3016 52.7694 93.9683ZM122.602 57.7574C125.079 65.2783 127.285 71.9986 129.648 79.1642C123.417 77.9396 117.799 76.824 111.62 75.6061C115.272 69.6696 118.709 64.0922 122.602 57.7574ZM28.7792 50.2976C31.0196 49.0893 33.4136 48.107 35.8393 47.3459C41.1976 45.6468 41.2259 45.7382 45.5218 51.4221C48.8526 56.191 52.5472 62.5881 54.3021 69.86C55.0132 72.7909 55.4301 75.8885 55.3478 78.8803C55.2078 84.0682 53.173 85.6201 47.9098 85.0602C46.1687 84.8684 44.4169 84.4691 42.757 83.9307C36.5763 81.9164 31.0017 78.7797 26.121 74.498C18.053 67.4145 19.3708 55.3573 28.7792 50.2976Z" fill="#191919"/>
</svg>
