<svg width="102" height="133" viewBox="0 0 102 133" fill="none" xmlns="http://www.w3.org/2000/svg">
<path d="M3.50292 44.5001C4.14349 50.1214 6.85337 54.226 12.2182 56.141C14.7568 57.0491 17.5135 57.5194 20.2079 57.716C26.4036 58.1683 32.3965 56.8882 38.1603 54.7483C42.3188 53.1988 46.3646 51.3623 51.3521 49.288C46.5956 68.9004 37.0898 85.3758 26.4906 101.778C24.6088 100.258 23.3093 99.0821 21.881 98.1102C20.5733 97.2174 19.19 96.344 17.7153 95.8044C12.6323 93.9547 10.6052 95.007 9.06463 100.101C8.36353 102.41 7.87105 104.786 7.07316 107.063C5.1281 112.679 3.1015 118.281 1.04042 123.868C-1.06597 129.572 1.58862 133.085 7.68062 132.46C9.59392 132.259 11.4808 131.797 13.3652 131.38C23.4157 129.169 33.46 126.921 43.4977 124.685C44.5953 124.444 45.7381 124.315 46.7807 123.91C50.1797 122.636 51.1123 119.145 48.5553 116.662C46.9857 115.127 44.9653 114.042 43.0951 112.82C40.1915 110.918 37.2446 109.072 34.1044 107.061C35.4148 104.924 36.4017 103.279 37.4014 101.658C44.318 90.3776 51.017 78.9858 55.4308 66.4749C57.6695 60.1299 59.5133 53.5712 60.6864 46.9605C61.3117 43.4598 62.7998 41.3248 65.2974 39.0622C76.8489 28.584 88.2099 17.9003 99.5905 7.22876C101.538 5.40363 101.772 3.26438 100.593 1.63909C99.3004 -0.152507 96.9864 -0.429738 94.5503 1.0307C93.4487 1.69085 92.4212 2.4865 91.4695 3.34095C87.6254 6.7732 83.8013 10.2208 80.0254 13.7031C73.8907 19.3473 67.7844 25.0108 61.0422 31.2446C59.8213 27.5231 59.0709 24.7416 58.0266 22.0819C53.2164 9.93769 40.6556 3.80313 28.6725 7.26147C16.4156 10.7935 2.19273 32.9634 3.50292 44.5001ZM33.3453 117.282C25.6336 119.079 18.7433 120.678 11.3957 122.393C13.1708 116.295 14.7827 110.799 16.5465 104.754C22.1339 108.919 27.3827 112.84 33.3453 117.282ZM49.1382 24.4979C50.142 26.8372 50.907 29.3092 51.4488 31.7931C52.6635 37.2815 52.57 37.3015 46.5258 41.0737C41.479 43.9662 34.7781 47.0759 27.3787 48.1756C24.3961 48.6226 21.2736 48.7618 18.3011 48.4131C13.1463 47.8113 11.782 45.6463 12.8088 40.454C13.155 38.7368 13.7088 37.0276 14.3931 35.4224C16.9502 29.4457 20.5713 24.1729 25.271 19.6933C33.0455 12.2888 44.9373 14.6761 49.1382 24.4979Z" fill="#191919"/>
</svg>
